<svg viewBox="0 0 156.59 199.11" xmlns="http://www.w3.org/2000/svg" width="100%" height="100%" preserveAspectRatio="xMidYMid meet"><g transform="translate(78.295, 99.555) scale(1, -1) translate(-78.295, -99.555)">  <g>    <path d="M130.1 61.01c7.5 6.74 2.42 20.46-1.21 19.7-3.62-.76.06-21.93 1.21-19.7" fill="#221714">
</path>    <path d="M78.87 43.41c27.01 0 51.22 5.78 67.94 14.93-5.66 5.66-33.49 8.58-67.94 8.58s-58.4.89-67.94-8.58c16.71-9.15 40.99-14.93 67.94-14.93" fill="#751d1b">
</path>    <path d="M16.72 57.13l-2.41 14.24 127.99 4.45-.83-18.43L81.6 41.06 16.72 57.13z" fill="#7d7c7d">
</path>    <path d="M156.41 74.67c1.46 10.23-6.16 17.67-11.5 18.49-5.34.76-10.49-4.39-11.5-11.5s3.5-16.02 8.83-16.78c5.27-.76 12.65-.44 14.17 9.79" fill="#f2dab6">
</path>    <path d="M149.93 76.64c.83 5.78-2.73 9.91-5.34 10.3s-5.15-2.54-5.72-6.61c-.57-4 1.53-8.96 4.07-9.34 2.61-.38 6.16-.06 6.99 5.66" fill="#d49274">
</path>    <path d="M142.3 64.76c-1.14 0-2.22.64-3.18 1.97.13 3.24 0 6.48-.32 9.66 1.08 6.04.76 11.31-.32 15.82.7.89 1.53 1.4 2.42 1.4 3.3.13 6.36-6.16 6.74-14.17.32-7.94-2.03-14.55-5.34-14.68" fill="#acadae">
</path>    <path d="M0 77.03C-.25 87.33 8.2 93.87 13.54 94c5.4.13 9.91-5.53 10.1-12.77.19-7.18-5.34-15.51-10.74-15.63C7.56 65.47.32 66.68 0 77.04" fill="#f2dab6">
</path>    <path d="M6.62 78.23c-.13 5.85 3.88 9.53 6.48 9.66 2.54.06 4.77-3.18 4.89-7.24.13-4.07-2.54-8.77-5.15-8.83-2.54-.13-6.04.64-6.23 6.42" fill="#d49274">
</path>    <path d="M136.33 54.97c1.33-1.14-2.67-6.61-2.99-8.58-2.35.44 4.64-.64.06-.76 2.54-1.4-5.66-3.81-4.83-6.99-1.91-.25 4.32 1.21-1.08 1.27 4.45-3.75-3.69-6.8-3.24-9.09-8.64.76 6.1-.19-8.58.13 1.27-1.97 3.69-9.22 3.05-12.14-18.62 7.24-47.35 3.18-74.93 17.6-21.29 11.12-25.8 23.01-28.22 33.24 9.22-22.05 23.01-24.21 26.06-24.72 19.32 5.21 47.09 9.85 74.42-.83 12.46 5.08 22.5 20.15 24.15 27.9-.44-9.66-2.86-15.76-3.88-17.03" fill="#221714">
</path>    <path d="M116.05 38.58c-24.21 5.34-54.85 6.86-74.17.95-1.91.38-12.71 9.72-19.76 18.24-4.19 5.08-6.42 11.12-6.42 11.12-6.42 25.04 15.13 55.29 65.84 53.89 46.65-1.21 62.66-29.49 58.91-49.32-3.69-19.83-13.28-29.87-24.4-34.89" fill="#f2dab6">
</path>    <path d="M81.54 118.59c-43.53 1.14-65.59-20.97-66.86-43.15-1.4 23.51 20.53 48.62 66.86 47.35 43.85-1.14 60.69-26.25 59.42-45.76-1.27 18.75-18.62 40.48-59.42 41.56" fill="#7d7c7d">
</path>    <path d="M139.95 82.3c-.06 1.14-.13 2.29-.25 3.43.06-1.08.19-2.29.25-3.43" fill="#f2dab6">
</path>    <path d="M15.45 63.87c1.14 0 .7.64 1.65 1.97-.13 3.24 0 6.48.32 9.66-1.08 6.04.76 11.31 1.84 15.82-.7.89-1.53 1.4-2.41 1.4-3.3.13-6.36-6.16-6.74-14.17-.38-7.88 2.03-14.49 5.34-14.68" fill="#acadae">
</path>    <path d="M139.63 86.43c0-.19 0-.44.06-.64-.06.19-.06.44-.06.64M139.82 84.21c-.06.38-.06.76-.13 1.14.06-.38.06-.76.13-1.14m.06-1.72c0 .38 0 .76-.06 1.14.06-.38.06-.76.06-1.14" fill="#f2dab6">
</path>    <path d="M112.37 56.5c-.19.95 10.23-2.1 11.76-2.61-.95-3.3-10.1-5.85-11.76 2.61m-71.56-.26c.38.95-10.42-.38-12.01-.64.38-3.5 9.02-7.44 12.01.64" fill="#edc696">
</path>    <path d="M111.99 55.54c-.19.95 10.23-2.1 11.76-2.61-.95-3.37-10.17-5.91-11.76 2.61m-70.93-.31c.32.89-10.42-.38-12.07-.64.44-3.5 9.02-7.44 12.07.64m5.21 16.01c-.13 5.15-4.45 9.22-9.6 9.09s-9.22-4.45-9.09-9.6 4.45-9.22 9.6-9.02c5.21.13 9.22 4.39 9.09 9.53" fill="#70351c">
</path>    <path d="M45.95 72.07s-2.92-2.67-4.7-2.86c-2.99-.38-4.39-.51-5.08.7s-.89 3.37.44 4.19c0 0 1.27.19 2.54 1.02 1.33.76 2.99 2.48 2.99 2.48.38.25.83.32 1.27.19 1.46-1.4 2.54-3.3 2.8-5.53-.06-.06-.13-.13-.25-.19" fill="#fff">
</path>    <path d="M47.35 86.62c-.19 2.22-5.66 3.56-12.2 2.92-6.48-.7-11.57-2.99-11.38-5.21.25-2.22 5.72-3.56 12.2-2.86 6.48.57 11.63 2.92 11.38 5.15" fill="#edc696">
</path>    <path d="M127.56 71.24c-.13 5.15-4.45 9.22-9.6 9.09s-9.22-4.45-9.09-9.6 4.45-9.22 9.6-9.02c5.21.13 9.22 4.39 9.09 9.53" fill="#70351c">
</path>    <path d="M127.24 72.07s-2.92-2.67-4.7-2.86c-2.99-.38-4.39-.51-5.08.7s-.89 3.37.44 4.19c0 0 1.27.19 2.54 1.02 1.33.76 2.99 2.48 2.99 2.48.38.25.83.32 1.27.19 1.53-1.4 2.54-3.3 2.8-5.53-.06-.06-.19-.13-.25-.19" fill="#fff">
</path>    <path d="M133.28 83.64c.32 2.22-4.58 4.83-11.06 5.85s-12.01 0-12.33-2.16c-.32-2.22 4.58-4.89 11.06-5.85 6.48-1.08 11.95-.06 12.33 2.16m-56.31-2.48s1.4 1.72 3.56 1.65c2.16 0 3.3-1.65 3.3-1.65l-4-6.55-2.86 6.55z" fill="#edc696">
</path>    <path d="M76.97 81.16h6.93l-4.07-6.55-2.86 6.55z" fill="#e39751">
</path>    <path d="M70.99 87.26l21.16.25-10.87 21.48-10.3-21.73z" fill="#fff">
</path>    <path d="M78.87 43.41c27.01 0 51.22 5.78 67.94 14.93C141.79 25.29 113.32 0 78.87 0S15.96 25.29 10.94 58.34c16.71-9.15 40.99-14.93 67.94-14.93" fill="#db423d">
</path>    <path d="M17.42 55.16s27.01-24.72 63.49-24.72 58.02 23.39 58.02 23.39-29.87-9.09-58.85-9.09-62.66 10.42-62.66 10.42" fill="#c3413f">
</path>    <path d="M138.93 53.83c-.76-.19-30.25-9.09-58.91-9.09-21.8 0-50.21 6.29-62.92 10.42 1.78-.57 1.91 1.65 1.91 1.65s33.68-8.45 62.66-8.45 55.93 7.82 55.93 7.82.95-.7 1.33-2.35" fill="#d69593">
</path>    <path d="M74.93 11.25h11.69c.51 0 .83-.25.95-.76.06-.51-.13-.76-.64-.76H75.24c-.51 0-.83.25-.89.76-.13.51.06.76.57.76zm.39-1.91h11.69c.51 0 .83-.25.89-.76s-.13-.76-.64-.76H75.57c-.51 0-.83.25-.89.76-.13.51.13.76.64.76zm-2.42 13.6h11.69c.51 0 .83-.25.89-.76.13-.51-.13-.76-.64-.76H73.15c-.51 0-.83.25-.95.76-.06.51.19.76.7.76zm-.32 1.91h11.69c.51 0 .83-.25.89-.76s-.13-.76-.64-.76H72.83c-.51 0-.83.25-.89.76-.13.51.06.76.64.76zm.7-8.52c-.06.51.13.76.64.76h3.88c.51 0 .83-.25.89-.76s-.13-.76-.64-.76h-3.88c-.51 0-.83.25-.89.76zm.32-1.97c-.06.51.13.76.64.76h3.88c.51 0 .83-.25.89-.76.13-.51-.13-.76-.64-.76h-3.88c-.44 0-.76.25-.89.76zm1.02-1.14h3.88c.51 0 .83-.25.89-.76.13-.51-.13-.76-.64-.76h-3.88c-.51 0-.83.25-.95.76-.06.51.19.76.7.76zm6.42 3.11c-.06.51.13.76.64.76h3.88c.51 0 .83-.25.89-.76s-.13-.76-.64-.76h-3.88c-.51 0-.76.25-.89.76zm.38-1.97c-.06.51.13.76.64.76h3.88c.51 0 .83-.25.89-.76.13-.51-.13-.76-.64-.76h-3.88c-.51 0-.83.25-.89.76zm.95-1.14h3.88c.51 0 .83-.25.89-.76.13-.51-.13-.76-.64-.76h-3.88c-.51 0-.83.25-.95.76 0 .51.19.76.7.76zm-9.79 6.99c-.13.51.13.76.64.76h3.88c.51 0 .83-.25.95-.76.06-.51-.13-.76-.64-.76h-3.88c-.57 0-.83.25-.95.76zm.38-1.97c-.13.51.13.76.64.76h3.88c.51 0 .83-.25.95-.76.06-.51-.13-.76-.64-.76h-3.94c-.51 0-.83.25-.89.76zm7.44 1.97c-.13.51.13.76.64.76h3.88c.51 0 .83-.25.95-.76.06-.51-.13-.76-.64-.76h-3.88c-.57 0-.89.25-.95.76zm.32-1.97c-.13.51.13.76.64.76h3.88c.51 0 .83-.25.95-.76.06-.51-.13-.76-.64-.76h-3.88c-.57 0-.89.25-.95.76zM75 6.61c-.06.51.13.76.64.76h9.72c.51 0 .83-.25.89-.76s-.13-.76-.64-.76h-9.72c-.51 0-.83.25-.89.76zm-3.43 19.45c-.06.51.13.76.64.76h9.72c.51 0 .83-.25.89-.76s-.13-.76-.64-.76h-9.72c-.51 0-.83.25-.89.76z" fill="#fff">
</path>    <path d="M143.76 155.7c-2.22-.44-4.07-4.45-4.45-6.23-.32-1.53-.57-1.72-2.22-1.97-1.08-.25.44-.06-.38.7-1.4 1.4-2.22 5.59-1.27 7.44.89 1.72 3.81 3.88 5.53 3.94l2.8-3.88zm-128.57 0c2.22-.44 4.07-4.45 4.45-6.23.32-1.53.19-1.72 1.84-1.97 1.08-.25-.06-.06.76.76 1.4 1.4 2.22 5.59 1.27 7.44-.89 1.72-3.75 3.88-5.53 3.94l-2.8-3.94z" fill="#bd9a62">
</path>    <path d="M19.77 145.85c1.59-1.08 25.29-27.9 25.29-27.9h65.78l27.9 27.77-118.97.13z" fill="#dfb43a">
</path>    <path d="M19.77 145.85l12.14 53.26h91.07l15.76-53.38-118.97.13z" fill="#d7821b">
</path>    <path d="M32.67 168.35c0 7.56-6.1 13.73-13.66 13.73s-13.66-6.16-13.66-13.73 6.1-13.66 13.66-13.66 13.66 6.1 13.66 13.66m93.74 0c0 7.56 6.1 13.73 13.66 13.73s13.66-6.16 13.66-13.73-6.1-13.66-13.66-13.66-13.66 6.1-13.66 13.66" fill="#e9c172">
</path>    <path d="M117.26 136l-11.69-11.19h-57.9L38.07 136h79.19z" fill="#fff">
</path>    <path d="M50.53 126.66h48.62v1.08H50.53v-1.08zm-5.08 4.96h9.02v1.08h-9.02v-1.08zm11.05 0h9.02v1.08H56.5v-1.08zm11.7 0h27.2v1.08H68.2v-1.08zm-20.59-2.61h33.87v1.08H47.61v-1.08zm35.97 0h10.17v1.08H83.58v-1.08z" fill="#9fa0a0">
</path>    <path d="M56.18 180.44l-2.67-6.36-5.42 6.36h-4.14l7.83-8.42-3.73-7.89H52l2.41 5.83 4.9-5.83h4.14l-7.34 7.91 4.03 8.4h-3.95zM65.63 180.44h-3.77l4.26-16.31h3.77l-4.25 16.31zM82.46 180.44l-.98-5.23h-6.36l-3.39 5.23H67.7l11.33-16.31h3.99l3.39 16.31h-3.95zm-4.48-9.69l-1.66 2.54h4.78l-.45-2.34c-.08-.35-.15-.76-.23-1.22-.08-.46-.14-.93-.21-1.39-.06-.46-.08-.87-.06-1.22-.18.35-.4.75-.66 1.21-.26.46-.53.9-.81 1.33-.28.43-.51.79-.72 1.09zM94.36 180.44h-5.88l4.29-16.31h5.38c2.59 0 4.55.34 5.89 1.02 1.34.68 2.2 1.65 2.56 2.9.36 1.25.33 2.72-.09 4.42-.38 1.63-1.04 3.04-2 4.23-.95 1.19-2.26 2.11-3.92 2.77-1.66.65-3.74.98-6.25.98zm3.39-14.46h-1.58l-3.31 12.6h1.96c2.16 0 3.85-.52 5.07-1.56 1.22-1.04 2.08-2.54 2.58-4.49.6-2.25.51-3.9-.26-4.96s-2.26-1.58-4.44-1.58zM108.33 179.59l4.03-15.46h3.77l-4.18 15.95c-.33 1.24-.83 2.22-1.51 2.94-.68.72-1.61 1.21-2.8 1.46-1.19.25-2.74.32-4.65.18l.72-1.96c1.05.07 1.88.02 2.47-.14.59-.16 1.04-.48 1.36-.96.31-.48.58-1.15.81-2.01z" fill="#fff">
</path>  </g>
</g></svg>